<svg xmlns="http://www.w3.org/2000/svg" width="23" height="23" viewBox="0 0 23 23" fill="none">
<path d="M22.5378 19.9216L17.5505 14.9343C18.7512 13.3359 19.3994 11.3902 19.3972 9.391C19.3972 4.28445 15.2427 0.129883 10.1361 0.129883C5.02957 0.129883 0.875 4.28445 0.875 9.391C0.875 14.4976 5.02957 18.6521 10.1361 18.6521C12.1353 18.6543 14.081 18.0061 15.6794 16.8054L20.6667 21.7927C20.9192 22.0184 21.2484 22.1388 21.5869 22.1294C21.9254 22.1199 22.2474 21.9812 22.4869 21.7418C22.7263 21.5023 22.865 21.1803 22.8745 20.8418C22.884 20.5033 22.7635 20.1741 22.5378 19.9216ZM3.52103 9.391C3.52103 8.08266 3.909 6.8037 4.63588 5.71586C5.36275 4.62801 6.39589 3.78014 7.60464 3.27946C8.81338 2.77878 10.1435 2.64778 11.4267 2.90302C12.7099 3.15827 13.8886 3.78829 14.8137 4.71343C15.7388 5.63857 16.3689 6.81726 16.6241 8.10046C16.8793 9.38366 16.7483 10.7137 16.2477 11.9225C15.747 13.1312 14.8991 14.1644 13.8113 14.8912C12.7234 15.6181 11.4445 16.0061 10.1361 16.0061C8.38234 16.004 6.70099 15.3064 5.46087 14.0663C4.22076 12.8261 3.52314 11.1448 3.52103 9.391Z" fill="#CCCCCC"/>
</svg>